<mxfile host="app.diagrams.net" modified="2021-05-03T12:55:29.697Z" agent="5.0 (Windows NT 10.0; Win64; x64) AppleWebKit/537.36 (KHTML, like Gecko) Chrome/88.0.4324.182 Safari/537.36" etag="h6CK7Qf1NE5Hrq7SoiY9" version="14.6.9" type="github">
  <diagram id="iJxknmKBH1ptX5jdI-9x" name="第 1 页">
    <mxGraphModel dx="782" dy="437" grid="1" gridSize="10" guides="1" tooltips="1" connect="1" arrows="1" fold="1" page="1" pageScale="1" pageWidth="827" pageHeight="1169" math="0" shadow="0">
      <root>
        <mxCell id="0" />
        <mxCell id="1" parent="0" />
        <mxCell id="HK7fcTBjlKI_wWAL3nB_-9" style="edgeStyle=orthogonalEdgeStyle;rounded=0;orthogonalLoop=1;jettySize=auto;html=1;exitX=0.5;exitY=1;exitDx=0;exitDy=0;exitPerimeter=0;" edge="1" parent="1" source="HK7fcTBjlKI_wWAL3nB_-1" target="HK7fcTBjlKI_wWAL3nB_-2">
          <mxGeometry relative="1" as="geometry" />
        </mxCell>
        <mxCell id="HK7fcTBjlKI_wWAL3nB_-1" value="开始" style="strokeWidth=1;html=1;shape=mxgraph.flowchart.terminator;whiteSpace=wrap;rounded=1;glass=0;fontSize=15;" vertex="1" parent="1">
          <mxGeometry x="250" y="70" width="90" height="50" as="geometry" />
        </mxCell>
        <mxCell id="HK7fcTBjlKI_wWAL3nB_-10" style="edgeStyle=orthogonalEdgeStyle;rounded=0;orthogonalLoop=1;jettySize=auto;html=1;exitX=0.5;exitY=1;exitDx=0;exitDy=0;entryX=0.5;entryY=0;entryDx=0;entryDy=0;" edge="1" parent="1" source="HK7fcTBjlKI_wWAL3nB_-2" target="HK7fcTBjlKI_wWAL3nB_-3">
          <mxGeometry relative="1" as="geometry" />
        </mxCell>
        <mxCell id="HK7fcTBjlKI_wWAL3nB_-2" value="&lt;font style=&quot;font-size: 15px&quot;&gt;进入系统主页面&lt;/font&gt;" style="rounded=0;whiteSpace=wrap;html=1;" vertex="1" parent="1">
          <mxGeometry x="235" y="150" width="120" height="40" as="geometry" />
        </mxCell>
        <mxCell id="HK7fcTBjlKI_wWAL3nB_-11" style="edgeStyle=orthogonalEdgeStyle;rounded=0;orthogonalLoop=1;jettySize=auto;html=1;exitX=0.5;exitY=1;exitDx=0;exitDy=0;" edge="1" parent="1" target="HK7fcTBjlKI_wWAL3nB_-6">
          <mxGeometry relative="1" as="geometry">
            <mxPoint x="295" y="245" as="sourcePoint" />
            <mxPoint x="120" y="375" as="targetPoint" />
            <Array as="points">
              <mxPoint x="295" y="275" />
              <mxPoint x="120" y="275" />
            </Array>
          </mxGeometry>
        </mxCell>
        <mxCell id="HK7fcTBjlKI_wWAL3nB_-12" style="edgeStyle=orthogonalEdgeStyle;rounded=0;orthogonalLoop=1;jettySize=auto;html=1;exitX=0.5;exitY=1;exitDx=0;exitDy=0;" edge="1" parent="1" source="HK7fcTBjlKI_wWAL3nB_-3" target="HK7fcTBjlKI_wWAL3nB_-5">
          <mxGeometry relative="1" as="geometry" />
        </mxCell>
        <mxCell id="HK7fcTBjlKI_wWAL3nB_-3" value="&lt;font style=&quot;font-size: 15px&quot;&gt;点击“组/用例管理”&lt;/font&gt;" style="rounded=0;whiteSpace=wrap;html=1;" vertex="1" parent="1">
          <mxGeometry x="235" y="210" width="120" height="40" as="geometry" />
        </mxCell>
        <mxCell id="HK7fcTBjlKI_wWAL3nB_-13" style="edgeStyle=orthogonalEdgeStyle;rounded=0;orthogonalLoop=1;jettySize=auto;html=1;exitX=0.5;exitY=1;exitDx=0;exitDy=0;" edge="1" parent="1" source="HK7fcTBjlKI_wWAL3nB_-5" target="HK7fcTBjlKI_wWAL3nB_-8">
          <mxGeometry relative="1" as="geometry" />
        </mxCell>
        <mxCell id="HK7fcTBjlKI_wWAL3nB_-14" style="edgeStyle=orthogonalEdgeStyle;rounded=0;orthogonalLoop=1;jettySize=auto;html=1;exitX=0.5;exitY=1;exitDx=0;exitDy=0;entryX=0.5;entryY=0;entryDx=0;entryDy=0;" edge="1" parent="1" source="HK7fcTBjlKI_wWAL3nB_-5" target="HK7fcTBjlKI_wWAL3nB_-7">
          <mxGeometry relative="1" as="geometry" />
        </mxCell>
        <mxCell id="HK7fcTBjlKI_wWAL3nB_-5" value="&lt;font style=&quot;font-size: 15px&quot;&gt;选择组/用例&lt;/font&gt;" style="rounded=0;whiteSpace=wrap;html=1;" vertex="1" parent="1">
          <mxGeometry x="370" y="300" width="120" height="40" as="geometry" />
        </mxCell>
        <mxCell id="HK7fcTBjlKI_wWAL3nB_-20" style="edgeStyle=orthogonalEdgeStyle;rounded=0;orthogonalLoop=1;jettySize=auto;html=1;exitX=0.5;exitY=1;exitDx=0;exitDy=0;entryX=0.5;entryY=0;entryDx=0;entryDy=0;" edge="1" parent="1" source="HK7fcTBjlKI_wWAL3nB_-6" target="HK7fcTBjlKI_wWAL3nB_-15">
          <mxGeometry relative="1" as="geometry" />
        </mxCell>
        <mxCell id="HK7fcTBjlKI_wWAL3nB_-6" value="&lt;font style=&quot;font-size: 15px&quot;&gt;点击“组/用例创建”&lt;/font&gt;" style="rounded=0;whiteSpace=wrap;html=1;" vertex="1" parent="1">
          <mxGeometry x="60" y="380" width="120" height="40" as="geometry" />
        </mxCell>
        <mxCell id="HK7fcTBjlKI_wWAL3nB_-22" style="edgeStyle=orthogonalEdgeStyle;rounded=0;orthogonalLoop=1;jettySize=auto;html=1;exitX=0.5;exitY=1;exitDx=0;exitDy=0;entryX=0.5;entryY=0;entryDx=0;entryDy=0;" edge="1" parent="1" source="HK7fcTBjlKI_wWAL3nB_-7" target="HK7fcTBjlKI_wWAL3nB_-16">
          <mxGeometry relative="1" as="geometry" />
        </mxCell>
        <mxCell id="HK7fcTBjlKI_wWAL3nB_-7" value="&lt;font style=&quot;font-size: 15px&quot;&gt;点击“组/用例删除&lt;span style=&quot;color: rgba(0 , 0 , 0 , 0) ; font-family: monospace ; font-size: 0px&quot;&gt;%3CmxGraphModel%3E%3Croot%3E%3CmxCell%20id%3D%220%22%2F%3E%3CmxCell%20id%3D%221%22%20parent%3D%220%22%2F%3E%3CmxCell%20id%3D%222%22%20value%3D%22%26lt%3Bfont%20style%3D%26quot%3Bfont-size%3A%2015px%26quot%3B%26gt%3B%E9%80%89%E6%8B%A9%E2%80%9C%E7%BB%84%2F%E7%94%A8%E4%BE%8B%E7%AE%A1%E7%90%86%E2%80%9D%26lt%3B%2Ffont%26gt%3B%22%20style%3D%22rounded%3D0%3BwhiteSpace%3Dwrap%3Bhtml%3D1%3B%22%20vertex%3D%221%22%20parent%3D%221%22%3E%3CmxGeometry%20x%3D%22370%22%20y%3D%22300%22%20width%3D%22120%22%20height%3D%2240%22%20as%3D%22geometry%22%2F%3E%3C%2FmxCell%3E%3C%2Froot%3E%3C%2FmxGraphModel%3&lt;/span&gt;”&lt;/font&gt;" style="rounded=0;whiteSpace=wrap;html=1;" vertex="1" parent="1">
          <mxGeometry x="470" y="380" width="140" height="40" as="geometry" />
        </mxCell>
        <mxCell id="HK7fcTBjlKI_wWAL3nB_-21" style="edgeStyle=orthogonalEdgeStyle;rounded=0;orthogonalLoop=1;jettySize=auto;html=1;exitX=0.5;exitY=1;exitDx=0;exitDy=0;" edge="1" parent="1" source="HK7fcTBjlKI_wWAL3nB_-8" target="HK7fcTBjlKI_wWAL3nB_-15">
          <mxGeometry relative="1" as="geometry" />
        </mxCell>
        <mxCell id="HK7fcTBjlKI_wWAL3nB_-8" value="&lt;font style=&quot;font-size: 15px&quot;&gt;点击“组/用例修改&lt;span style=&quot;color: rgba(0 , 0 , 0 , 0) ; font-family: monospace ; font-size: 0px&quot;&gt;%3CmxGraphModel%3E%3Croot%3E%3CmxCell%20id%3D%220%22%2F%3E%3CmxCell%20id%3D%221%22%20parent%3D%220%22%2F%3E%3CmxCell%20id%3D%222%22%20value%3D%22%26lt%3Bfont%20style%3D%26quot%3Bfont-size%3A%2015px%26quot%3B%26gt%3B%E9%80%89%E6%8B%A9%E2%80%9C%E7%BB%84%2F%E7%94%A8%E4%BE%8B%E7%AE%A1%E7%90%86%E2%80%9D%26lt%3B%2Ffont%26gt%3B%22%20style%3D%22rounded%3D0%3BwhiteSpace%3Dwrap%3Bhtml%3D1%3B%22%20vertex%3D%221%22%20parent%3D%221%22%3E%3CmxGeometry%20x%3D%22370%22%20y%3D%22300%22%20width%3D%22120%22%20height%3D%2240%22%20as%3D%22geometry%22%2F%3E%3C%2FmxCell%3E%3C%2Froot%3E%3C%2FmxGraphModel%3&lt;/span&gt;”&lt;/font&gt;" style="rounded=0;whiteSpace=wrap;html=1;" vertex="1" parent="1">
          <mxGeometry x="250" y="380" width="140" height="40" as="geometry" />
        </mxCell>
        <mxCell id="HK7fcTBjlKI_wWAL3nB_-23" style="edgeStyle=orthogonalEdgeStyle;rounded=0;orthogonalLoop=1;jettySize=auto;html=1;exitX=0.5;exitY=1;exitDx=0;exitDy=0;entryX=0.5;entryY=0;entryDx=0;entryDy=0;entryPerimeter=0;" edge="1" parent="1" source="HK7fcTBjlKI_wWAL3nB_-15">
          <mxGeometry relative="1" as="geometry">
            <mxPoint x="385" y="550" as="targetPoint" />
          </mxGeometry>
        </mxCell>
        <mxCell id="HK7fcTBjlKI_wWAL3nB_-15" value="&lt;span style=&quot;font-size: 15px&quot;&gt;编辑组/用例信息并提交&lt;/span&gt;" style="rounded=0;whiteSpace=wrap;html=1;" vertex="1" parent="1">
          <mxGeometry x="140" y="460" width="140" height="40" as="geometry" />
        </mxCell>
        <mxCell id="HK7fcTBjlKI_wWAL3nB_-24" style="edgeStyle=orthogonalEdgeStyle;rounded=0;orthogonalLoop=1;jettySize=auto;html=1;exitX=0.5;exitY=1;exitDx=0;exitDy=0;" edge="1" parent="1" target="HK7fcTBjlKI_wWAL3nB_-26">
          <mxGeometry relative="1" as="geometry">
            <mxPoint x="540" y="485" as="sourcePoint" />
            <mxPoint x="385" y="550" as="targetPoint" />
            <Array as="points">
              <mxPoint x="540" y="525" />
              <mxPoint x="385" y="525" />
            </Array>
          </mxGeometry>
        </mxCell>
        <mxCell id="HK7fcTBjlKI_wWAL3nB_-16" value="&lt;span style=&quot;font-size: 15px&quot;&gt;删除成功&lt;/span&gt;" style="rounded=0;whiteSpace=wrap;html=1;" vertex="1" parent="1">
          <mxGeometry x="470" y="450" width="140" height="40" as="geometry" />
        </mxCell>
        <mxCell id="HK7fcTBjlKI_wWAL3nB_-25" value="结束" style="strokeWidth=1;html=1;shape=mxgraph.flowchart.terminator;whiteSpace=wrap;rounded=1;glass=0;fontSize=15;" vertex="1" parent="1">
          <mxGeometry x="340" y="611" width="90" height="50" as="geometry" />
        </mxCell>
        <mxCell id="HK7fcTBjlKI_wWAL3nB_-27" style="edgeStyle=orthogonalEdgeStyle;rounded=0;orthogonalLoop=1;jettySize=auto;html=1;exitX=0.5;exitY=1;exitDx=0;exitDy=0;" edge="1" parent="1" source="HK7fcTBjlKI_wWAL3nB_-26" target="HK7fcTBjlKI_wWAL3nB_-25">
          <mxGeometry relative="1" as="geometry" />
        </mxCell>
        <mxCell id="HK7fcTBjlKI_wWAL3nB_-26" value="&lt;font style=&quot;font-size: 15px&quot;&gt;对gitlab项目中的分支进行处理&lt;/font&gt;" style="rounded=0;whiteSpace=wrap;html=1;" vertex="1" parent="1">
          <mxGeometry x="325" y="550" width="120" height="40" as="geometry" />
        </mxCell>
      </root>
    </mxGraphModel>
  </diagram>
</mxfile>
